# xmcd
#
# Track frame offsets: 
#        150
#        12161
#        25006
#        37364
#        49129
#        64106
#        75119
#        88011
#        100768
#        114823
#        128463
#        141783
#        155623
#        170655
#        187930
#        198566
#        210058
#        233255
#        250167
#        261667
#        275047
#        291725
#        307076
#        323848
#        335802
#        340572
#
# Disc length: 4597 seconds
#
# Revision: 0
# Processed by: cddbd v1.5.2PL0 Copyright (c) Steve Scherf et al.
# Submitted via: ExactAudioCopyFreeDBPlugin 1.0
#
DISCID=6f11f31a
DTITLE=Denise LaSalle - Making A Good Thing Better - The Complete West
DTITLE=bound Singles 1970-76
DYEAR=2013
DGENRE=Soul
TTITLE0=Hung Up, Strung Out
TTITLE1=Heartbreaker of the Year
TTITLE2=Trapped By a Thing Called Love
TTITLE3=Keep It Coming
TTITLE4=Now Run and Tell That
TTITLE5=The Deeper I Go (The Better It Gets)
TTITLE6=A Man Size Job
TTITLE7=I'm Over You
TTITLE8=Making a Good Thing Better
TTITLE9=What It Takes To Get a Good Woman (That's What It Takes To Kee
TTITLE9=p Her)
TTITLE10=Do Me Right
TTITLE11=Your Man and Your Best Friend
TTITLE12=What Am I Doing Wrong
TTITLE13=Don't Nobody Live Here (By the Name of Fool)
TTITLE14=Good Goody Getter
TTITLE15=Get Up Off My Mind
TTITLE16=The Best Thing I Ever Had
TTITLE17=Trying To Forget
TTITLE18=We've Got Love (the Good Part About It)
TTITLE19=My Brand On You
TTITLE20=Any Time is the Right Time
TTITLE21=Here I Am Again
TTITLE22=Married But Not To Each Other
TTITLE23=Who's the Fool
TTITLE24=Radio Ad For "Trapped By a Thing Called Love"
TTITLE25=Radio Ad For "On the Loose"
EXTD=
EXTT0=
EXTT1=
EXTT2=
EXTT3=
EXTT4=
EXTT5=
EXTT6=
EXTT7=
EXTT8=
EXTT9=
EXTT10=
EXTT11=
EXTT12=
EXTT13=
EXTT14=
EXTT15=
EXTT16=
EXTT17=
EXTT18=
EXTT19=
EXTT20=
EXTT21=
EXTT22=
EXTT23=
EXTT24=
EXTT25=
PLAYORDER=
